<?xml version="1.0" encoding="utf-8"?>
<svg xmlns="http://www.w3.org/2000/svg" style="margin: auto; background: rgb(241, 242, 243); display: block; shape-rendering: auto;" width="280" height="250" preserveAspectRatio="xMidYMid">
<style type="text/css">
  text {
    text-anchor: middle; font-size: 30px; opacity: 0;
  }
</style>
<g style="transform-origin: 140px 125px; transform: scale(0.375);">
<g transform="translate(140,125)">
  <g transform="translate(0,0)"><g class="path" style="transform: matrix(1, 0, 0, 1, 0, 14.925); opacity: 0.05; transform-origin: -141.52px 0.458761px; animation: 1s linear 0s 1 normal forwards running float-btt-in-98d22a6f-dd84-4d55-a61e-15f302eebb93;"><path d="M6.56-24.80L6.56-24.80L6.56-24.80Q6.56-36.24 18.52-42.48L18.52-42.48L18.52-42.48Q30.48-48.72 52.32-48.72L52.32-48.72L52.32-48.72Q64.72-48.72 70.48-44.96L70.48-44.96L70.48-44.96Q76.24-41.20 76.24-34.72L76.24-34.72L76.24-34.72Q76.24-29.28 72.52-24.96L72.52-24.96L72.52-24.96Q68.80-20.64 62.08-18.56L62.08-18.56L62.08-18.56Q76.80-16.88 76.80-8.24L76.80-8.24L76.80-8.24Q76.80-3.76 73.64-0.76L73.64-0.76L73.64-0.76Q70.48 2.24 65.28 3.52L65.28 3.52L65.28 3.52Q56.48 5.68 47.20 5.68L47.20 5.68L47.20 4.08L47.20 4.08Q49.04 4.24 50.72 4.24L50.72 4.24L50.72 4.24Q58.72 4.24 62.80 1.44L62.80 1.44L62.80 1.44Q67.76-2 67.76-7.60L67.76-7.60L67.76-7.60Q67.76-10.80 65.80-13.32L65.80-13.32L65.80-13.32Q63.84-15.84 61.92-16.80L61.92-16.80L59.92-17.76L59.92-17.76Q57.36-17.20 54.16-17.20L54.16-17.20L54.16-18.80L54.16-18.80Q61.84-18.80 68.16-23.20L68.16-23.20L68.16-23.20Q74.48-27.60 74.48-34.72L74.48-34.72L74.48-34.72Q74.48-40.64 68.92-43.88L68.92-43.88L68.92-43.88Q63.36-47.12 53.04-47.20L53.04-47.20L53.04-47.20Q48.64-17.44 46.32-6.24L46.32-6.24L46.32-6.24Q44.72 2.40 38.32 7.32L38.32 7.32L38.32 7.32Q31.92 12.24 24.64 12.24L24.64 12.24L24.64 10.72L24.64 10.72Q27.76 10.48 29.24 10.04L29.24 10.04L29.24 10.04Q30.72 9.60 31.76 8.20L31.76 8.20L31.76 8.20Q32.80 6.80 33.28 4.88L33.28 4.88L33.28 4.88Q34.16 0.96 34.64-2.56L34.64-2.56L42.32-46.80L42.32-46.80Q25.92-45.44 17-39.72L17-39.72L17-39.72Q8.08-34 8.08-24.80L8.08-24.80L8.08-24.80Q8.08-20.64 10.96-17.76L10.96-17.76L10.96-17.76Q12.96-15.84 16.24-14.84L16.24-14.84L16.24-14.84Q19.52-13.84 21.64-13.72L21.64-13.72L21.64-13.72Q23.76-13.60 23.92-13.76L23.92-13.76L23.92-12.08L23.92-12.08Q14.48-12.08 9.92-16.56L9.92-16.56L9.92-16.56Q6.56-19.68 6.56-24.80" fill="#000000" stroke="none" stroke-width="none" transform="translate(-183.19998168945312,18.698762539950287)" style="fill: rgb(0, 0, 0);"></path></g><g class="path" style="transform: matrix(1, 0, 0, 1, 0, 14.925); opacity: 0.05; transform-origin: -86.32px 3.49876px; animation: 1s linear 0.06s 1 normal forwards running float-btt-in-98d22a6f-dd84-4d55-a61e-15f302eebb93;"><path d="M100.40-31.12L100.40-31.12L100.40-31.12Q110.56-31.12 110.56-23.04L110.56-23.04L110.56-23.04Q110.56-18 105.80-15.40L105.80-15.40L105.80-15.40Q101.04-12.80 92.24-12.72L92.24-12.72L92.24-12.72Q92.08-9.84 92.08-8.16L92.08-8.16L92.08-8.16Q92.08-4.56 93.72-2.84L93.72-2.84L93.72-2.84Q95.36-1.12 97.84-1.12L97.84-1.12L97.84-1.12Q100.32-1.12 102.36-2.08L102.36-2.08L102.36-2.08Q104.40-3.04 105.60-4.36L105.60-4.36L105.60-4.36Q106.80-5.68 107.68-7.12L107.68-7.12L107.68-7.12Q109.28-9.76 109.28-10.48L109.28-10.48L110.72-9.84L110.72-9.84Q110.48-8.56 109.28-6.44L109.28-6.44L109.28-6.44Q108.08-4.32 106.64-2.96L106.64-2.96L106.64-2.96Q105.20-1.60 102.40-0.44L102.40-0.44L102.40-0.44Q99.60 0.72 96.16 0.72L96.16 0.72L96.16 0.72Q89.68 0.72 86.36-2.36L86.36-2.36L86.36-2.36Q83.04-5.44 83.04-10.80L83.04-10.80L83.04-10.80Q83.04-20.32 87.76-25.72L87.76-25.72L87.76-25.72Q92.48-31.12 100.40-31.12zM108.56-23.04L108.56-23.04Q108.56-25.68 107-27.40L107-27.40L107-27.40Q105.44-29.12 102.36-29.12L102.36-29.12L102.36-29.12Q99.28-29.12 96.36-25.44L96.36-25.44L96.36-25.44Q93.44-21.76 92.48-14.56L92.48-14.56L92.48-14.56Q108.56-14.64 108.56-23.04L108.56-23.04" fill="#000000" stroke="none" stroke-width="none" transform="translate(-183.19998168945312,18.698762539950287)" style="fill: rgb(0, 0, 0);"></path></g><g class="path" style="transform: matrix(1, 0, 0, 1, 0, 14.925); opacity: 0.05; transform-origin: -40.16px 3.49876px; animation: 1s linear 0.12s 1 normal forwards running float-btt-in-98d22a6f-dd84-4d55-a61e-15f302eebb93;"><path d="M145.36-0.88L145.36-0.88L145.36-0.88Q147.28-0.88 149.36-3.12L149.36-3.12L150.56-2.16L150.56-2.16Q150-1.04 148.08-0.16L148.08-0.16L148.08-0.16Q146.16 0.72 143.84 0.72L143.84 0.72L143.84 0.72Q136.56 0.72 136.56-5.84L136.56-5.84L136.56-5.84Q136.56-8.64 138-15.84L138-15.84L138-15.84Q139.44-23.04 139.44-25.28L139.44-25.28L139.44-25.28Q139.44-28.72 136.16-28.72L136.16-28.72L136.16-28.72Q131.20-28.72 127.84-16L127.84-16L124.96 0L115.36 0L120.64-29.52L120.64-29.52Q118.24-29.28 116.64-27.28L116.64-27.28L115.44-28.24L115.44-28.24Q117.84-31.12 121.48-31.12L121.48-31.12L121.48-31.12Q125.12-31.12 127.12-29.28L127.12-29.28L127.12-29.28Q129.12-27.44 129.12-24.08L129.12-24.08L129.12-23.84L129.12-23.84Q132.24-31.12 138.56-31.12L138.56-31.12L138.56-31.12Q143.04-31.12 145.64-28.68L145.64-28.68L145.64-28.68Q148.24-26.24 148.48-21.84L148.48-21.84L148.48-21.84Q150-26.24 152.32-28.68L152.32-28.68L152.32-28.68Q154.64-31.12 159.04-31.12L159.04-31.12L159.04-31.12Q163.44-31.12 166.08-28.44L166.08-28.44L166.08-28.44Q168.72-25.76 168.72-21.04L168.72-21.04L168.72-21.04Q168.72-18.56 167.20-11.48L167.20-11.48L167.20-11.48Q165.68-4.40 165.52-0.88L165.52-0.88L165.52-0.88Q167.44-0.88 169.52-3.12L169.52-3.12L170.72-2.16L170.72-2.16Q170.16-1.04 168.24-0.16L168.24-0.16L168.24-0.16Q166.32 0.72 164 0.72L164 0.72L164 0.72Q156.72 0.72 156.72-5.84L156.72-5.84L156.72-5.84Q156.72-8.64 158.16-15.84L158.16-15.84L158.16-15.84Q159.60-23.04 159.60-25.28L159.60-25.28L159.60-25.28Q159.60-28.72 156.32-28.72L156.32-28.72L156.32-28.72Q150.56-28.72 147.04-11.60L147.04-11.60L147.04-11.60Q145.52-4.32 145.36-0.88" fill="#000000" stroke="none" stroke-width="none" transform="translate(-183.19998168945312,18.698762539950287)" style="fill: rgb(0, 0, 0);"></path></g><g class="path" style="transform: matrix(1, 0, 0, 1, 0, 14.925); opacity: 0.05; transform-origin: 23.88px 3.49876px; animation: 1s linear 0.18s 1 normal forwards running float-btt-in-98d22a6f-dd84-4d55-a61e-15f302eebb93;"><path d="M212.48-21.20L212.48-21.20L212.48-21.20Q210.80-22.88 210.80-25.28L210.80-25.28L210.80-25.28Q210.80-27.68 212.48-29.40L212.48-29.40L212.48-29.40Q214.16-31.12 216.28-31.12L216.28-31.12L216.28-31.12Q218.40-31.12 219.88-30.04L219.88-30.04L219.88-30.04Q221.36-28.96 222-27.28L222-27.28L222-27.28Q222.08-27.20 222.08-27.12L222.08-27.12L222.08-27.04L222.08-27.04Q223.04-24.96 223.04-21L223.04-21L223.04-21Q223.04-17.04 222.12-13.76L222.12-13.76L222.12-13.76Q221.20-10.48 219.32-7.08L219.32-7.08L219.32-7.08Q217.44-3.68 213.84-1.48L213.84-1.48L213.84-1.48Q210.24 0.72 205.36 0.72L205.36 0.72L205.36 0.72Q200.48 0.72 197.24-2.48L197.24-2.48L197.24-2.48Q194-5.68 194-9.84L194-9.84L194-9.84Q194-14 195.48-20.12L195.48-20.12L195.48-20.12Q196.96-26.24 197.12-29.52L197.12-29.52L197.12-29.52Q195.84-29.44 194.64-28.60L194.64-28.60L194.64-28.60Q193.44-27.76 192.88-26.96L192.88-26.96L192.32-26.16L191.12-27.12L191.12-27.12Q191.36-27.60 191.84-28.24L191.84-28.24L191.84-28.24Q192.32-28.88 194.28-30L194.28-30L194.28-30Q196.24-31.12 199.20-31.12L199.20-31.12L199.20-31.12Q202.16-31.12 203.96-29.20L203.96-29.20L203.96-29.20Q205.76-27.28 205.76-24.32L205.76-24.32L205.76-24.32Q205.76-21.36 204.16-15.16L204.16-15.16L204.16-15.16Q202.56-8.96 202.56-6.44L202.56-6.44L202.56-6.44Q202.56-3.92 203.72-2.48L203.72-2.48L203.72-2.48Q204.88-1.04 207.04-1.04L207.04-1.04L207.04-1.04Q212.40-1.04 216.80-6.88L216.80-6.88L216.80-6.88Q221.20-12.72 221.20-19.92L221.20-19.92L221.20-19.92Q221.20-20.48 221.04-21.60L221.04-21.60L221.04-21.60Q219.36-19.52 216.76-19.52L216.76-19.52L216.76-19.52Q214.16-19.52 212.48-21.20" fill="#000000" stroke="none" stroke-width="none" transform="translate(-183.19998168945312,18.698762539950287)" style="fill: rgb(0, 0, 0);"></path></g><g class="path" style="transform: matrix(1, 0, 0, 1, 0, 14.925); opacity: 0.05; transform-origin: 51.72px 3.49876px; animation: 1s linear 0.24s 1 normal forwards running float-btt-in-98d22a6f-dd84-4d55-a61e-15f302eebb93;"><path d="M241.60-2.16L241.60-2.16Q239.20 0.72 235.60 0.72L235.60 0.72L235.60 0.72Q232 0.72 229.96-1.12L229.96-1.12L229.96-1.12Q227.92-2.96 227.92-5.92L227.92-5.92L227.92-5.92Q227.92-6.96 229.20-14.64L229.20-14.64L231.84-28.96L228.48-28.96L228.64-30.40L232.08-30.40L232.08-30.40Q238-30.40 240.80-30.88L240.80-30.88L241.92-31.12L236.40-0.88L236.40-0.88Q238.80-1.12 240.40-3.12L240.40-3.12L241.60-2.16" fill="#000000" stroke="none" stroke-width="none" transform="translate(-183.19998168945312,18.698762539950287)" style="fill: rgb(0, 0, 0);"></path></g><g class="path" style="transform: matrix(1, 0, 0, 1, 0, 14.925); opacity: 0.05; transform-origin: 55.48px -24.2212px; animation: 1s linear 0.3s 1 normal forwards running float-btt-in-98d22a6f-dd84-4d55-a61e-15f302eebb93;"><path d="M234.56-38.80L234.56-38.80L234.56-38.80Q232.88-40.48 232.88-42.88L232.88-42.88L232.88-42.88Q232.88-45.28 234.56-47L234.56-47L234.56-47Q236.24-48.72 238.64-48.72L238.64-48.72L238.64-48.72Q241.04-48.72 242.76-47L242.76-47L242.76-47Q244.48-45.28 244.48-42.88L244.48-42.88L244.48-42.88Q244.48-40.48 242.76-38.80L242.76-38.80L242.76-38.80Q241.04-37.12 238.64-37.12L238.64-37.12L238.64-37.12Q236.24-37.12 234.56-38.80" fill="#000000" stroke="none" stroke-width="none" transform="translate(-183.19998168945312,18.698762539950287)" style="fill: rgb(0, 0, 0);"></path></g><g class="path" style="transform: matrix(1, 0, 0, 1, 0, 14.925); opacity: 0.05; transform-origin: 81.16px 3.49876px; animation: 1s linear 0.36s 1 normal forwards running float-btt-in-98d22a6f-dd84-4d55-a61e-15f302eebb93;"><path d="M277.12-0.88L277.12-0.88L277.12-0.88Q279.04-0.88 281.12-3.12L281.12-3.12L282.32-2.16L282.32-2.16Q281.76-1.04 279.84-0.16L279.84-0.16L279.84-0.16Q277.92 0.72 275.60 0.72L275.60 0.72L275.60 0.72Q268.32 0.72 268.32-5.84L268.32-5.84L268.32-5.84Q268.32-8.64 269.76-15.84L269.76-15.84L269.76-15.84Q271.20-23.04 271.20-25.28L271.20-25.28L271.20-25.28Q271.20-28.72 267.92-28.72L267.92-28.72L267.92-28.72Q265.28-28.72 262.84-25.28L262.84-25.28L262.84-25.28Q260.40-21.84 258.80-15.84L258.80-15.84L256.08-0.88L256.08-0.88Q258.56-1.12 260.16-3.12L260.16-3.12L261.36-2.16L261.36-2.16Q258.96 0.72 255.36 0.72L255.36 0.72L255.36 0.72Q251.76 0.72 249.72-1.12L249.72-1.12L249.72-1.12Q247.68-2.96 247.68-5.92L247.68-5.92L247.68-5.92Q247.68-7.04 248.96-14.72L248.96-14.72L251.60-29.52L251.60-29.52Q249.20-29.28 247.60-27.28L247.60-27.28L246.40-28.24L246.40-28.24Q248.80-31.12 252.44-31.12L252.44-31.12L252.44-31.12Q256.08-31.12 258.08-29.28L258.08-29.28L258.08-29.28Q260.08-27.44 260.08-24.08L260.08-24.08L260.08-23.60L260.08-23.60Q263.36-31.12 270.32-31.12L270.32-31.12L270.32-31.12Q275.04-31.12 277.68-28.44L277.68-28.44L277.68-28.44Q280.32-25.76 280.32-21.04L280.32-21.04L280.32-21.04Q280.32-18.56 278.80-11.48L278.80-11.48L278.80-11.48Q277.28-4.40 277.12-0.88" fill="#000000" stroke="none" stroke-width="none" transform="translate(-183.19998168945312,18.698762539950287)" style="fill: rgb(0, 0, 0);"></path></g><g class="path" style="transform: matrix(1, 0, 0, 1, 0, 14.925); opacity: 0.05; transform-origin: 121px -6.86123px; animation: 1s linear 0.42s 1 normal forwards running float-btt-in-98d22a6f-dd84-4d55-a61e-15f302eebb93;"><path d="M313.84 0.72L313.84 0.72L313.84 0.72Q306.80 0.72 306.16-5.28L306.16-5.28L306.16-5.28Q302.64 0.72 297.20 0.72L297.20 0.72L297.20 0.72Q291.76 0.72 288.88-2.36L288.88-2.36L288.88-2.36Q286-5.44 286-10.80L286-10.80L286-10.80Q286-20.24 290.48-25.68L290.48-25.68L290.48-25.68Q294.96-31.12 302.08-31.12L302.08-31.12L302.08-31.12Q306.16-31.12 308.40-28.64L308.40-28.64L308.40-28.64Q309.36-27.36 309.60-26.72L309.60-26.72L313.92-50.24L313.92-50.24Q311.52-50 309.92-48L309.92-48L308.72-48.96L308.72-48.96Q311.12-51.84 314.76-51.84L314.76-51.84L314.76-51.84Q318.40-51.84 320.40-50L320.40-50L320.40-50Q322.40-48.16 322.40-44.80L322.40-44.80L322.40-44.80Q322.40-44.16 322.24-42.72L322.24-42.72L322.24-42.72Q318.32-20.72 314.64-0.88L314.64-0.88L314.64-0.88Q317.04-1.12 318.64-3.12L318.64-3.12L319.84-2.16L319.84-2.16Q317.44 0.72 313.84 0.72zM295.04-7.52L295.04-7.52Q295.04-3.84 295.80-2.48L295.80-2.48L295.80-2.48Q296.56-1.12 298.20-1.12L298.20-1.12L298.20-1.12Q299.84-1.12 301.36-2.24L301.36-2.24L301.36-2.24Q302.88-3.36 303.92-5.12L303.92-5.12L303.92-5.12Q305.84-8.08 306.64-10.16L306.64-10.16L308.96-22.80L308.96-22.80Q308.80-25.36 307.28-27.48L307.28-27.48L307.28-27.48Q305.76-29.60 302.08-29.60L302.08-29.60L302.08-29.60Q299.52-29.60 297.28-22.08L297.28-22.08L297.28-22.08Q295.04-14.56 295.04-7.52L295.04-7.52" fill="#000000" stroke="none" stroke-width="none" transform="translate(-183.19998168945312,18.698762539950287)" style="fill: rgb(0, 0, 0);"></path></g><g class="path" style="transform: matrix(1, 0, 0, 1, 0, 14.925); opacity: 0.05; transform-origin: 156.72px 3.49876px; animation: 1s linear 0.48s 1 normal forwards running float-btt-in-98d22a6f-dd84-4d55-a61e-15f302eebb93;"><path d="M336.80 0.72L336.80 0.72Q330.64 0.72 327.44-2.36L327.44-2.36L327.44-2.36Q324.24-5.44 324.24-10.12L324.24-10.12L324.24-10.12Q324.24-14.80 325.08-18.12L325.08-18.12L325.08-18.12Q325.92-21.44 327.84-24.52L327.84-24.52L327.84-24.52Q329.76-27.60 333.64-29.36L333.64-29.36L333.64-29.36Q337.52-31.12 343.32-31.12L343.32-31.12L343.32-31.12Q349.12-31.12 352.36-28.04L352.36-28.04L352.36-28.04Q355.60-24.96 355.60-19.60L355.60-19.60L355.60-19.60Q355.60-10.48 350.76-4.88L350.76-4.88L350.76-4.88Q345.92 0.72 336.80 0.72L336.80 0.72zM333.28-7.52L333.28-7.52L333.28-7.52Q333.28-1.12 337.00-1.12L337.00-1.12L337.00-1.12Q340.72-1.12 343.64-7.56L343.64-7.56L343.64-7.56Q346.56-14 346.56-22.88L346.56-22.88L346.56-22.88Q346.56-29.60 342.92-29.60L342.92-29.60L342.92-29.60Q339.28-29.60 336.28-23.48L336.28-23.48L336.28-23.48Q333.28-17.36 333.28-7.52" fill="#000000" stroke="none" stroke-width="none" transform="translate(-183.19998168945312,18.698762539950287)" style="fill: rgb(0, 0, 0);"></path></g><g class="path" style="transform: matrix(1, 0, 0, 1, 0, 14.925); opacity: 0.05; transform-origin: 180.04px 15.2988px; animation: 1s linear 0.54s 1 normal forwards running float-btt-in-98d22a6f-dd84-4d55-a61e-15f302eebb93;"><path d="M360.36-0.52L360.36-0.52L360.36-0.52Q359.20-1.68 359.20-3.36L359.20-3.36L359.20-3.36Q359.20-5.04 360.36-6.24L360.36-6.24L360.36-6.24Q361.52-7.44 363.20-7.44L363.20-7.44L363.20-7.44Q364.88-7.44 366.08-6.24L366.08-6.24L366.08-6.24Q367.28-5.04 367.28-3.36L367.28-3.36L367.28-3.36Q367.28-1.68 366.08-0.52L366.08-0.52L366.08-0.52Q364.88 0.64 363.20 0.64L363.20 0.64L363.20 0.64Q361.52 0.64 360.36-0.52" fill="#000000" stroke="none" stroke-width="none" transform="translate(-183.19998168945312,18.698762539950287)" style="fill: rgb(0, 0, 0);"></path></g><g class="path" style="transform: matrix(1, 0, 0, 1, 0, 14.925); opacity: 0.05; transform-origin: 185.12px -10.7412px; animation: 1s linear 0.6s 1 normal forwards running float-btt-in-98d22a6f-dd84-4d55-a61e-15f302eebb93;"><path d="M365.84-9.76L363.68-10L370.64-49.12L372.96-48.80L365.84-9.76" fill="#000000" stroke="none" stroke-width="none" transform="translate(-183.19998168945312,18.698762539950287)" style="fill: rgb(0, 0, 0);"></path></g></g>
</g>
</g>
<style id="float-btt-in-98d22a6f-dd84-4d55-a61e-15f302eebb93" data-anikit="">@keyframes float-btt-in-98d22a6f-dd84-4d55-a61e-15f302eebb93
{
  0% {
    animation-timing-function: cubic-bezier(0.2242,0.7499,0.3142,0.8148);
    transform: translate(0px,14.925px) rotate(0deg) scale(1,1) skewX(0deg) skewY(0deg);
    opacity: 0.05;
  }
  100% {
    transform: translate(0px,0px) rotate(0deg) scale(1,1) skewX(0deg) skewY(0deg);
    opacity: 1;
  }
}</style></svg>